# xmcd
#
# Track frame offsets: 
#        150
#        27023
#        46512
#        72449
#        109648
#        138551
#        162734
#        185934
#        208426
#        239313
#
# Disc length: 3560 seconds
#
# Revision: 0
# Processed by: cddbd v1.5.2PL0 Copyright (c) Steve Scherf et al.
# Submitted via: ExactAudioCopy v0.95b4
#
DISCID=950de60a
DTITLE=Various Artist - Tranquillity Of Sensorica vol 1 [CD01)
DYEAR=2008
DGENRE=Chill out
TTITLE0=Side Liner - Haunted Thoughts (Cydelix remix)
TTITLE1=Terra Nine - Foxtrot Alpha
TTITLE2=D.Batistatos - Criminal Intention
TTITLE3=Sensorica - Anomalye's Motion
TTITLE4=Side Liner - Moonlight
TTITLE5=Minos - Introitous
TTITLE6=Vadim Soloviev - No Way Back
TTITLE7=Cydelix and Gen - Whisper
TTITLE8=MLT - Ravine Echoes
TTITLE9=Affective - Virgin Forest
EXTD=
EXTT0=
EXTT1=
EXTT2=
EXTT3=
EXTT4=
EXTT5=
EXTT6=
EXTT7=
EXTT8=
EXTT9=
PLAYORDER=
